<svg width="20" height="20" viewBox="0 0 20 20" fill="none" xmlns="http://www.w3.org/2000/svg">
<g clip-path="url(#clip0_977_5007)">
<path d="M19.043 5.72275C18.2266 3.99228 16.9336 2.53915 15.3047 1.51962C13.0391 0.105558 10.3555 -0.34366 7.7539 0.257902C5.15234 0.855558 2.93749 2.43368 1.52343 4.69931C0.105464 6.96493 -0.343755 9.64462 0.257807 12.2501C0.85937 14.8517 2.43749 17.0665 4.69921 18.4806C6.29296 19.4767 8.12109 20.004 9.99218 20.004H10.1133C11.9766 19.9806 13.7891 19.4415 15.3594 18.4493C15.8164 18.1602 15.9492 17.5587 15.6602 17.1017C15.3711 16.6446 14.7695 16.5118 14.3125 16.8009C13.0508 17.6017 11.5898 18.0352 10.0898 18.0548C8.55078 18.0743 7.04687 17.6485 5.73437 16.8321C3.91015 15.6915 2.64062 13.9102 2.16015 11.8165C1.67968 9.72275 2.03906 7.5665 3.17968 5.74228C5.53124 1.98056 10.5078 0.832121 14.2695 3.18368C15.582 4.004 16.6211 5.17196 17.2773 6.56259C17.918 7.91806 18.168 9.42196 18 10.9063C17.9414 11.4415 18.3242 11.9259 18.8633 11.9845C19.3984 12.0431 19.8828 11.6602 19.9414 11.1212C20.1484 9.27353 19.8359 7.40634 19.043 5.72275Z" fill="#34A853"/>
<path d="M13.2305 6.60938L8.51953 11.3203L6.77344 9.57422C6.39062 9.19141 5.77344 9.19141 5.39062 9.57422C5.00781 9.95703 5.00781 10.5742 5.39062 10.957L7.82812 13.3945C8.01953 13.5859 8.26953 13.6797 8.51953 13.6797C8.76953 13.6797 9.01953 13.5859 9.21094 13.3945L14.6094 7.99219C14.9922 7.60938 14.9922 6.99219 14.6094 6.60938C14.2266 6.23047 13.6094 6.23047 13.2305 6.60938Z" fill="#34A853"/>
</g>
<defs>
<clipPath id="clip0_977_5007">
<rect width="20" height="20" fill="white"/>
</clipPath>
</defs>
</svg>
