<svg width="18" height="19" viewBox="0 0 18 19" fill="none" xmlns="http://www.w3.org/2000/svg">
<path fill-rule="evenodd" clip-rule="evenodd" d="M15.4167 10.8519V7.56478C15.4167 4.61586 13.4138 2.1317 10.7004 1.38461C10.4318 0.708112 9.7755 0.231445 9 0.231445C8.2245 0.231445 7.56817 0.708112 7.29958 1.38461C4.58625 2.13261 2.58333 4.61586 2.58333 7.56478V10.8519L1.01858 12.4167C0.84625 12.5881 0.75 12.8209 0.75 13.0648V14.8981C0.75 15.405 1.15975 15.8148 1.66667 15.8148H16.3333C16.8402 15.8148 17.25 15.405 17.25 14.8981V13.0648C17.25 12.8209 17.1537 12.5881 16.9814 12.4167L15.4167 10.8519ZM15.4173 13.9814H2.58398V13.4443L4.14873 11.8795C4.32107 11.7081 4.41732 11.4753 4.41732 11.2314V7.56478C4.41732 5.03753 6.4734 2.98145 9.00065 2.98145C11.5279 2.98145 13.584 5.03753 13.584 7.56478V11.2314C13.584 11.4753 13.6802 11.7081 13.8526 11.8795L15.4173 13.4443V13.9814ZM8.99918 18.5648C10.2009 18.5648 11.2056 17.8003 11.5823 16.7314H6.41602C6.79277 17.8003 7.79743 18.5648 8.99918 18.5648Z" fill="#313131"/>
</svg>
