<svg width="13" height="13" viewBox="0 0 13 13" fill="none" xmlns="http://www.w3.org/2000/svg">
<g clip-path="url(#clip0_977_4600)">
<path d="M0.568849 6.84892C0.439854 6.89642 0.373364 7.03941 0.420354 7.1689L0.577357 7.60088L1.77279 6.40543L0.568849 6.84892ZM1.7003 10.6888L2.42028 12.6687C2.43143 12.6996 2.44862 12.728 2.47085 12.7522C2.49308 12.7764 2.51991 12.796 2.54976 12.8097C2.58281 12.8251 2.6188 12.8331 2.65525 12.8332C2.68476 12.8332 2.71375 12.8282 2.74176 12.8177L3.53624 12.5247L1.7003 10.6888ZM12.3899 8.99834L11.566 6.73293L9.58855 8.71035L10.5685 8.34936C10.697 8.30035 10.842 8.36736 10.8895 8.49736C10.9375 8.62685 10.871 8.77084 10.7415 8.81835L9.49654 9.27733C9.46885 9.28759 9.43956 9.29283 9.41003 9.29282C9.30853 9.29282 9.21253 9.23032 9.17555 9.12933C9.17505 9.12783 9.17555 9.12633 9.17505 9.12483L7.07963 11.2203L12.2414 9.31832C12.3709 9.27084 12.4374 9.12783 12.3899 8.99834ZM12.3319 4.90649L8.33206 0.906619C8.23456 0.809122 8.07606 0.809122 7.97857 0.906619L0.478829 8.40635C0.381332 8.50385 0.381332 8.66235 0.478829 8.75985L4.4787 12.7597C4.50177 12.7831 4.52926 12.8016 4.55956 12.8142C4.58986 12.8268 4.62237 12.8333 4.6552 12.8332C4.7192 12.8332 4.78319 12.8087 4.83219 12.7602L12.3319 5.26047C12.3788 5.21347 12.405 5.14983 12.405 5.08348C12.405 5.01713 12.3788 4.95349 12.3319 4.90649ZM3.33224 7.76039L2.33227 8.76034C2.28522 8.80708 2.2216 8.83331 2.15528 8.83331C2.08896 8.83331 2.02533 8.80708 1.97828 8.76034C1.88079 8.66285 1.88079 8.50434 1.97828 8.40685L2.97826 7.40687C3.07575 7.30938 3.23426 7.30938 3.33175 7.40687C3.42925 7.50439 3.42974 7.66238 3.33224 7.76039ZM7.64958 8.07787C7.47259 8.25486 7.23211 8.33987 6.9646 8.33987C6.52261 8.33987 6.00613 8.10838 5.57415 7.67588C5.25815 7.35988 5.03616 6.9819 4.94968 6.61193C4.85368 6.19944 4.93269 5.84046 5.17216 5.60047C5.41166 5.36048 5.77064 5.28147 6.18362 5.37799C6.55362 5.46449 6.9316 5.68597 7.24758 6.00246C7.94207 6.69642 8.11907 7.60838 7.64958 8.07787ZM10.832 5.26047L9.83201 6.26045C9.78496 6.30718 9.72133 6.33341 9.65501 6.33341C9.5887 6.33341 9.52507 6.30718 9.47802 6.26045C9.38052 6.16295 9.38052 6.00445 9.47802 5.90695L10.478 4.90698C10.5755 4.80948 10.734 4.80948 10.8315 4.90698C10.929 5.00447 10.9295 5.16248 10.832 5.26047Z" fill="white"/>
</g>
<defs>
<clipPath id="clip0_977_4600">
<rect width="12" height="12" fill="white" transform="translate(0.405273 0.833252)"/>
</clipPath>
</defs>
</svg>
