<svg width="31" height="30" viewBox="0 0 31 30" fill="none" xmlns="http://www.w3.org/2000/svg">
<g clip-path="url(#clip0_977_4611)">
<path d="M24.4053 0H6.40527C3.09157 0 0.405273 2.68629 0.405273 6V24C0.405273 27.3137 3.09157 30 6.40527 30H24.4053C27.719 30 30.4053 27.3137 30.4053 24V6C30.4053 2.68629 27.719 0 24.4053 0Z" fill="#ECECEC"/>
<path fill-rule="evenodd" clip-rule="evenodd" d="M23.0615 7.125V23.75C23.0615 23.8694 23.0289 23.9865 22.9672 24.0887C22.9055 24.1909 22.8171 24.2744 22.7116 24.3301C22.606 24.3858 22.4872 24.4117 22.368 24.4049C22.2488 24.3981 22.1337 24.359 22.0351 24.2916L19.852 22.8015L17.7879 24.2829C17.6677 24.3695 17.5217 24.4127 17.3737 24.4056C17.2257 24.3984 17.0846 24.3413 16.9733 24.2435L15.4053 22.8724L13.8373 24.2435C13.726 24.3413 13.5848 24.3984 13.4368 24.4056C13.2889 24.4127 13.1428 24.3695 13.0226 24.2829L10.9585 22.8015L8.7754 24.2916C8.67682 24.359 8.56174 24.3981 8.44255 24.4049C8.32336 24.4117 8.20458 24.3858 8.099 24.3301C7.99341 24.2744 7.90503 24.1909 7.84336 24.0887C7.78169 23.9865 7.74908 23.8694 7.74902 23.75V7.125C7.74902 6.27975 8.43415 5.59375 9.28027 5.59375H21.5303C22.3764 5.59375 23.0615 6.27975 23.0615 7.125ZM11.9053 13.9063H18.9053C19.0793 13.9063 19.2462 13.8371 19.3693 13.714C19.4924 13.591 19.5615 13.424 19.5615 13.25C19.5615 13.076 19.4924 12.909 19.3693 12.786C19.2462 12.6629 19.0793 12.5938 18.9053 12.5938H11.9053C11.7312 12.5938 11.5643 12.6629 11.4412 12.786C11.3182 12.909 11.249 13.076 11.249 13.25C11.249 13.424 11.3182 13.591 11.4412 13.714C11.5643 13.8371 11.7312 13.9063 11.9053 13.9063ZM11.9053 10.4063H18.9053C19.0793 10.4063 19.2462 10.3371 19.3693 10.214C19.4924 10.091 19.5615 9.92405 19.5615 9.75C19.5615 9.57595 19.4924 9.40903 19.3693 9.28596C19.2462 9.16289 19.0793 9.09375 18.9053 9.09375H11.9053C11.7312 9.09375 11.5643 9.16289 11.4412 9.28596C11.3182 9.40903 11.249 9.57595 11.249 9.75C11.249 9.92405 11.3182 10.091 11.4412 10.214C11.5643 10.3371 11.7312 10.4063 11.9053 10.4063ZM11.9053 17.4063H15.4053C15.5793 17.4063 15.7462 17.3371 15.8693 17.214C15.9924 17.091 16.0615 16.924 16.0615 16.75C16.0615 16.576 15.9924 16.409 15.8693 16.286C15.7462 16.1629 15.5793 16.0938 15.4053 16.0938H11.9053C11.7312 16.0938 11.5643 16.1629 11.4412 16.286C11.3182 16.409 11.249 16.576 11.249 16.75C11.249 16.924 11.3182 17.091 11.4412 17.214C11.5643 17.3371 11.7312 17.4063 11.9053 17.4063Z" fill="#777777"/>
</g>
<defs>
<clipPath id="clip0_977_4611">
<rect width="30" height="30" fill="white" transform="translate(0.405273)"/>
</clipPath>
</defs>
</svg>
