<svg width="14" height="16" viewBox="0 0 14 16" fill="none" xmlns="http://www.w3.org/2000/svg">
<path d="M1.78585 5.0828V10.3714C1.86395 11.3823 1.9413 12.7048 2.01941 13.6383C2.09676 14.7273 3.03027 15.5827 4.12 15.5827H9.87499C10.964 15.5827 11.8967 14.7273 11.9756 13.6383C12.0529 12.7056 12.1303 11.383 12.2084 10.3714C12.2857 9.2051 12.2084 6.7936 12.2084 5.0828H1.78585ZM12.4419 2.74941H10.4968L9.87499 1.58233C9.48596 0.882391 8.78602 0.416016 8.00797 0.416016H6.14171C5.36366 0.416016 4.58561 0.882391 4.2747 1.58233L3.4974 2.74941H1.55228C1.24136 2.74941 0.929688 3.06032 0.929688 3.37124C0.929688 3.68216 1.2406 3.99383 1.55152 3.99383H12.4412C12.7521 3.99383 13.063 3.76027 13.063 3.372C13.063 2.98373 12.7529 2.74941 12.4419 2.74941ZM4.81918 2.74941L5.2082 2.12757C5.36366 1.81666 5.67458 1.58233 6.0636 1.58233H7.93062C8.31965 1.58233 8.63056 1.73855 8.78602 2.12682L9.17505 2.74865L4.81918 2.74941Z" fill="#E00000"/>
</svg>
