<svg width="20" height="20" viewBox="0 0 20 20" fill="none" xmlns="http://www.w3.org/2000/svg">
<path fill-rule="evenodd" clip-rule="evenodd" d="M10 1.81818C8.92555 1.81818 7.86162 2.02981 6.86895 2.44098C5.87629 2.85216 4.97433 3.45483 4.21458 4.21458C3.45483 4.97433 2.85216 5.87629 2.44098 6.86895C2.02981 7.86162 1.81818 8.92555 1.81818 10C1.81818 11.0744 2.02981 12.1384 2.44098 13.131C2.85216 14.1237 3.45483 15.0257 4.21458 15.7854C4.97433 16.5452 5.87629 17.1478 6.86895 17.559C7.86162 17.9702 8.92555 18.1818 10 18.1818C12.1699 18.1818 14.251 17.3198 15.7854 15.7854C17.3198 14.251 18.1818 12.1699 18.1818 10C18.1818 7.83004 17.3198 5.74897 15.7854 4.21458C14.251 2.68019 12.1699 1.81818 10 1.81818ZM0 10C0 4.47727 4.47727 0 10 0C15.5227 0 20 4.47727 20 10C20 15.5227 15.5227 20 10 20C4.47727 20 0 15.5227 0 10ZM10 8.18182C10.2411 8.18182 10.4723 8.27759 10.6428 8.44808C10.8133 8.61857 10.9091 8.8498 10.9091 9.09091V14.5455C10.9091 14.7866 10.8133 15.0178 10.6428 15.1883C10.4723 15.3588 10.2411 15.4545 10 15.4545C9.75889 15.4545 9.52766 15.3588 9.35717 15.1883C9.18669 15.0178 9.09091 14.7866 9.09091 14.5455V9.09091C9.09091 8.8498 9.18669 8.61857 9.35717 8.44808C9.52766 8.27759 9.75889 8.18182 10 8.18182ZM10 6.36363C10.2411 6.36363 10.4723 6.26786 10.6428 6.09737C10.8133 5.92688 10.9091 5.69565 10.9091 5.45454C10.9091 5.21344 10.8133 4.98221 10.6428 4.81172C10.4723 4.64123 10.2411 4.54545 10 4.54545C9.75889 4.54545 9.52766 4.64123 9.35717 4.81172C9.18669 4.98221 9.09091 5.21344 9.09091 5.45454C9.09091 5.69565 9.18669 5.92688 9.35717 6.09737C9.52766 6.26786 9.75889 6.36363 10 6.36363Z" fill="#777777"/>
</svg>
