<svg width="4" height="17" viewBox="0 0 4 17" fill="none" xmlns="http://www.w3.org/2000/svg">
<path d="M0.0546875 8.125C0.0546875 9.15875 0.895937 10 1.92969 10C2.96344 10 3.80469 9.15875 3.80469 8.125C3.80469 7.09125 2.96344 6.25 1.92969 6.25C0.895937 6.25 0.0546875 7.09125 0.0546875 8.125ZM0.0546875 14.375C0.0546875 15.4087 0.895937 16.25 1.92969 16.25C2.96344 16.25 3.80469 15.4087 3.80469 14.375C3.80469 13.3413 2.96344 12.5 1.92969 12.5C0.895937 12.5 0.0546875 13.3413 0.0546875 14.375ZM0.0546875 1.875C0.0546875 2.90875 0.895937 3.75 1.92969 3.75C2.96344 3.75 3.80469 2.90875 3.80469 1.875C3.80469 0.84125 2.96344 0 1.92969 0C0.895937 0 0.0546875 0.84125 0.0546875 1.875Z" fill="#777777"/>
</svg>
