<svg width="14" height="14" viewBox="0 0 14 14" fill="none" xmlns="http://www.w3.org/2000/svg">
<path d="M9.80154 2.69966L11.2966 4.19403M10.763 1.38318L6.72033 5.42581C6.51145 5.6344 6.36899 5.90015 6.31092 6.18958L5.9375 8.05877L7.8067 7.68465C8.09611 7.62677 8.36152 7.48489 8.57047 7.27594L12.6131 3.23331C12.7346 3.11183 12.8309 2.96761 12.8967 2.80889C12.9624 2.65016 12.9963 2.48005 12.9963 2.30824C12.9963 2.13644 12.9624 1.96632 12.8967 1.8076C12.8309 1.64888 12.7346 1.50466 12.6131 1.38318C12.4916 1.26169 12.3474 1.16533 12.1887 1.09958C12.0299 1.03384 11.8598 1 11.688 1C11.5162 1 11.3461 1.03384 11.1874 1.09958C11.0287 1.16533 10.8844 1.26169 10.763 1.38318Z" stroke="#313131" stroke-width="1.41178" stroke-linecap="round" stroke-linejoin="round"/>
<path d="M11.5883 9.471V11.5887C11.5883 11.9631 11.4396 12.3222 11.1748 12.587C10.9101 12.8517 10.551 13.0005 10.1766 13.0005H2.41178C2.03735 13.0005 1.67826 12.8517 1.4135 12.587C1.14874 12.3222 1 11.9631 1 11.5887V3.82389C1 3.44946 1.14874 3.09037 1.4135 2.82561C1.67826 2.56085 2.03735 2.41211 2.41178 2.41211H4.52945" stroke="#313131" stroke-width="1.41178" stroke-linecap="round" stroke-linejoin="round"/>
</svg>
