<svg width="25" height="25" viewBox="0 0 25 25" fill="none" xmlns="http://www.w3.org/2000/svg">
<path d="M21.9302 6.84082H3.93018C3.66496 6.84082 3.41061 6.94618 3.22307 7.13371C3.03553 7.32125 2.93018 7.5756 2.93018 7.84082C2.93018 8.10604 3.03553 8.36039 3.22307 8.54793C3.41061 8.73546 3.66496 8.84082 3.93018 8.84082H21.9302C22.1954 8.84082 22.4497 8.73546 22.6373 8.54793C22.8248 8.36039 22.9302 8.10604 22.9302 7.84082C22.9302 7.5756 22.8248 7.32125 22.6373 7.13371C22.4497 6.94618 22.1954 6.84082 21.9302 6.84082ZM15.9302 11.8408H3.93018C3.66496 11.8408 3.41061 11.9462 3.22307 12.1337C3.03553 12.3212 2.93018 12.5756 2.93018 12.8408C2.93018 13.106 3.03553 13.3604 3.22307 13.5479C3.41061 13.7355 3.66496 13.8408 3.93018 13.8408H15.9302C16.1954 13.8408 16.4497 13.7355 16.6373 13.5479C16.8248 13.3604 16.9302 13.106 16.9302 12.8408C16.9302 12.5756 16.8248 12.3212 16.6373 12.1337C16.4497 11.9462 16.1954 11.8408 15.9302 11.8408ZM9.93018 16.8408H3.93018C3.66496 16.8408 3.41061 16.9462 3.22307 17.1337C3.03553 17.3212 2.93018 17.5756 2.93018 17.8408C2.93018 18.106 3.03553 18.3604 3.22307 18.5479C3.41061 18.7355 3.66496 18.8408 3.93018 18.8408H9.93018C10.1954 18.8408 10.4497 18.7355 10.6373 18.5479C10.8248 18.3604 10.9302 18.106 10.9302 17.8408C10.9302 17.5756 10.8248 17.3212 10.6373 17.1337C10.4497 16.9462 10.1954 16.8408 9.93018 16.8408Z" fill="#313131"/>
</svg>
