<svg width="16" height="15" viewBox="0 0 16 15" fill="none" xmlns="http://www.w3.org/2000/svg">
<path d="M7.11955 0C8.98147 0 10.5 1.4925 10.5 3.33V6.9225H5.92151C5.59339 6.9225 5.33394 7.1775 5.33394 7.5C5.33394 7.815 5.59339 8.0775 5.92151 8.0775H10.5V11.6625C10.5 13.5 8.98147 15 7.10429 15H3.38808C1.51853 15 0 13.5075 0 11.67V3.3375C0 1.4925 1.52616 0 3.39571 0H7.11955ZM12.4052 4.91265C12.6302 4.68015 12.9977 4.68015 13.2227 4.90515L15.4127 7.08765C15.5252 7.20015 15.5852 7.34265 15.5852 7.50015C15.5852 7.65015 15.5252 7.80015 15.4127 7.90515L13.2227 10.0877C13.1102 10.2002 12.9602 10.2601 12.8177 10.2601C12.6677 10.2601 12.5177 10.2002 12.4052 10.0877C12.1802 9.86265 12.1802 9.49515 12.4052 9.27015L13.6052 8.07765H10.5002V6.92265H13.6052L12.4052 5.73015C12.1802 5.50515 12.1802 5.13765 12.4052 4.91265Z" fill="white"/>
</svg>
