<svg width="18" height="20" viewBox="0 0 18 20" fill="none" xmlns="http://www.w3.org/2000/svg">
<path d="M13.092 13.2266V9.85781C13.092 9.27733 12.7536 8.77473 12.2641 8.53725V8.08082C12.2641 6.27757 10.7995 4.81055 8.99912 4.81055C7.19874 4.81055 5.7341 6.27757 5.7341 8.08082V8.53725C5.24462 8.7747 4.90625 9.27733 4.90625 9.85781V13.2266C4.90625 14.0349 5.5628 14.6925 6.36936 14.6925H11.6289C12.4354 14.6925 13.092 14.0349 13.092 13.2266ZM8.99912 5.87695C10.2125 5.87695 11.1994 6.86551 11.1994 8.08082V8.39182H6.79877V8.08082C6.79877 6.86551 7.78572 5.87695 8.99912 5.87695ZM8.46662 11.911V11.1734C8.46662 10.8791 8.70514 10.6402 8.99912 10.6402C9.29309 10.6402 9.53161 10.8791 9.53161 11.1734V11.911C9.53161 12.2057 9.29309 12.4442 8.99912 12.4442C8.70514 12.4442 8.46662 12.2057 8.46662 11.911Z" fill="#313131"/>
<path d="M7.76374 17.1962C6.0898 16.9095 4.55783 16.034 3.45004 14.731C2.32995 13.4135 1.71311 11.7335 1.71311 10.0004C1.71311 8.26737 2.32995 6.58734 3.45004 5.2699C4.29428 4.27689 5.38497 3.53258 6.59698 3.1075L6.40819 3.44318C6.26387 3.69975 6.35452 4.0249 6.61067 4.16944C6.8622 4.31265 7.19065 4.22549 7.33576 3.96661L8.13588 2.54412C8.27985 2.30219 8.19237 1.96385 7.94894 1.82252L6.54995 0.977137C6.29817 0.824995 5.971 0.906078 5.81914 1.15825C5.66728 1.41042 5.74823 1.73813 5.99997 1.89023L6.31104 2.07821C4.89563 2.5614 3.62173 3.42316 2.63946 4.57851C1.35554 6.08869 0.648438 8.01424 0.648438 10.0004C0.648438 11.9866 1.35554 13.9122 2.63946 15.4223C3.90874 16.9153 5.66483 17.9186 7.58426 18.2473C7.86747 18.298 8.15049 18.1035 8.19873 17.8117C8.24828 17.5214 8.05356 17.2459 7.76374 17.1962ZM15.3645 4.57851C14.0952 3.08557 12.3391 2.08229 10.4197 1.75352C10.1298 1.70393 9.85479 1.89894 9.80524 2.18918C9.75569 2.47946 9.95042 2.75499 10.2402 2.80464C11.9141 3.0914 13.4461 3.96689 14.5539 5.2699C15.674 6.58734 16.2909 8.26737 16.2909 10.0004C16.2909 11.7335 15.674 13.4135 14.5539 14.731C13.7097 15.724 12.619 16.4683 11.407 16.8933L11.5958 16.5577C11.7401 16.3011 11.6495 15.976 11.3933 15.8314C11.1372 15.687 10.8125 15.7777 10.6682 16.0342L9.86809 17.4567C9.72412 17.6989 9.8115 18.0369 10.055 18.1783L11.4541 19.0237C11.7017 19.1745 12.0321 19.0969 12.1849 18.8426C12.3367 18.5904 12.2558 18.2627 12.004 18.1106L11.693 17.9226C13.1084 17.4395 14.3823 16.5777 15.3646 15.4223C16.6485 13.9122 17.3556 11.9866 17.3556 10.0004C17.3556 8.01424 16.6484 6.08869 15.3645 4.57851Z" fill="#313131"/>
</svg>
