<svg width="20" height="20" viewBox="0 0 20 20" fill="none" xmlns="http://www.w3.org/2000/svg">
<path d="M13.0892 8.08917L11.1783 10L13.0892 11.9108C13.2454 12.0671 13.3332 12.279 13.3332 12.5C13.3332 12.721 13.2454 12.9329 13.0892 13.0892C12.9329 13.2454 12.721 13.3332 12.5 13.3332C12.279 13.3332 12.0671 13.2454 11.9108 13.0892L10 11.1783L8.08917 13.0892C8.01196 13.1668 7.92015 13.2284 7.81904 13.2705C7.71793 13.3125 7.60951 13.3342 7.5 13.3342C7.39049 13.3342 7.28207 13.3125 7.18096 13.2705C7.07984 13.2284 6.98804 13.1668 6.91083 13.0892C6.83338 13.0118 6.77193 12.92 6.73 12.8189C6.68808 12.7178 6.6665 12.6094 6.6665 12.5C6.6665 12.3906 6.68808 12.2822 6.73 12.1811C6.77193 12.08 6.83338 11.9882 6.91083 11.9108L8.82167 10L6.91083 8.08917C6.75458 7.93291 6.66679 7.72098 6.66679 7.5C6.66679 7.27902 6.75458 7.06709 6.91083 6.91083C7.06709 6.75458 7.27902 6.66679 7.5 6.66679C7.72098 6.66679 7.93291 6.75458 8.08917 6.91083L10 8.82167L11.9108 6.91083C12.0671 6.75458 12.279 6.66679 12.5 6.66679C12.721 6.66679 12.9329 6.75458 13.0892 6.91083C13.2454 7.06709 13.3332 7.27902 13.3332 7.5C13.3332 7.72098 13.2454 7.93291 13.0892 8.08917ZM20 10C20 15.5142 15.5142 20 10 20C4.48583 20 0 15.5142 0 10C0 4.48583 4.48583 0 10 0C15.5142 0 20 4.48583 20 10ZM18.3333 10C18.3333 5.405 14.595 1.66667 10 1.66667C5.405 1.66667 1.66667 5.405 1.66667 10C1.66667 14.595 5.405 18.3333 10 18.3333C14.595 18.3333 18.3333 14.595 18.3333 10Z" fill="#E21D25"/>
</svg>
