<svg width="31" height="30" viewBox="0 0 31 30" fill="none" xmlns="http://www.w3.org/2000/svg">
<g clip-path="url(#clip0_977_4619)">
<path d="M24.4053 0H6.40527C3.09157 0 0.405273 3.11778 0.405273 6.96375V23.0362C0.405273 26.8822 3.09157 30 6.40527 30H24.4053C27.719 30 30.4053 26.8822 30.4053 23.0362V6.96375C30.4053 3.11778 27.719 0 24.4053 0Z" fill="#ECECEC"/>
<path d="M22.1904 18.6895C22.4976 18.5852 22.8198 18.5318 23.1442 18.5317C23.6436 18.5316 24.135 18.6575 24.5728 18.8978C25.0107 19.138 25.3808 19.4848 25.649 19.9061C25.9683 19.8909 26.0502 19.7039 25.5371 19.0354C24.7098 17.9573 23.559 17.7483 22.7498 17.7592C22.6964 17.6157 22.6438 17.472 22.5917 17.328C22.0957 15.9566 20.9819 15.3034 20.3263 15.0273L19.6944 13.1842C19.6758 13.1295 19.6462 13.0792 19.6074 13.0364C19.5687 12.9935 19.5217 12.959 19.4692 12.9349C19.4168 12.9105 19.3599 12.8972 19.3022 12.8956C19.2444 12.894 19.187 12.9043 19.1333 12.9258L17.951 13.3941C18.0724 13.4454 18.1784 13.5274 18.2584 13.632C18.3676 13.7738 18.4231 13.9498 18.4148 14.1286L19.0317 13.8841L20.9551 19.494C21.2922 19.1257 21.7173 18.8489 22.1904 18.6895ZM10.7529 10.2183H5.36077C5.30094 10.2183 5.2417 10.2301 5.18643 10.253C5.13116 10.2759 5.08094 10.3095 5.03864 10.3518C4.99635 10.3941 4.9628 10.4443 4.93991 10.4996C4.91703 10.5549 4.90526 10.6141 4.90527 10.674V15.9901C4.90526 16.0499 4.91703 16.1092 4.93992 16.1645C4.9628 16.2197 4.99635 16.27 5.03865 16.3123C5.08095 16.3546 5.13117 16.3881 5.18644 16.411C5.24171 16.4339 5.30095 16.4457 5.36077 16.4457H10.7529C10.8128 16.4457 10.872 16.434 10.9273 16.4111C10.9826 16.3882 11.0328 16.3546 11.0751 16.3123C11.1174 16.27 11.151 16.2198 11.1739 16.1645C11.1968 16.1092 11.2086 16.0499 11.2085 15.9901V10.674C11.2086 10.6141 11.1968 10.5549 11.1739 10.4996C11.151 10.4443 11.1174 10.3941 11.0751 10.3517C11.0328 10.3094 10.9826 10.2759 10.9273 10.253C10.872 10.23 10.8128 10.2183 10.7529 10.2183ZM12.9087 20.6859C12.4575 19.3555 11.0137 18.6427 9.68315 19.0939C8.35274 19.5448 7.64014 20.989 8.09118 22.3192C8.54222 23.6495 9.98609 24.3623 11.3166 23.9114C12.6469 23.4602 13.3597 22.0162 12.9087 20.6859ZM10.8225 22.4541C10.297 22.6324 9.7265 22.3505 9.54822 21.8252C9.37015 21.2996 9.65173 20.729 10.1771 20.5509C10.7027 20.3727 11.2733 20.6545 11.4514 21.1798C11.6296 21.7054 11.3481 22.276 10.8225 22.4541Z" fill="#777777"/>
<path d="M20.5214 13.5822C20.5214 14.3013 21.1043 14.8841 21.8233 14.8841C22.5423 14.8841 22.5423 12.2803 21.8233 12.2803C21.1043 12.2803 20.5214 12.863 20.5214 13.5822ZM20.7355 22.3192C21.1864 23.6495 22.6305 24.3623 23.9609 23.9114C25.2913 23.4603 26.004 22.0162 25.553 20.6858C25.102 19.3555 23.6579 18.6427 22.3275 19.0938C20.9973 19.5448 20.2844 20.989 20.7355 22.3192ZM23.467 22.4542C22.9413 22.6324 22.3708 22.3505 22.1926 21.8252C22.0146 21.2996 22.296 20.729 22.8215 20.5509C23.3471 20.3728 23.9176 20.6546 24.0958 21.1799C24.2741 21.7055 23.9925 22.276 23.467 22.4542ZM14.3195 18.1817V17.2426C14.3195 17.1977 14.3106 17.1533 14.2935 17.1119C14.2763 17.0704 14.2512 17.0328 14.2195 17.0011C14.1878 16.9694 14.1501 16.9442 14.1087 16.927C14.0673 16.9099 14.0229 16.901 13.978 16.901H7.02025C6.9297 16.9011 6.84287 16.9371 6.77886 17.0011C6.71484 17.0652 6.67886 17.152 6.67883 17.2426V18.1817C6.67883 18.2722 6.7148 18.359 6.77883 18.4231C6.84286 18.4871 6.9297 18.5231 7.02025 18.5231H7.058C6.68713 19.433 6.11475 21.0106 6.11475 22.0804H7.58672C7.45864 21.4415 7.54316 20.782 7.83635 20.1881C8.18783 19.4766 8.79486 18.9442 9.54614 18.6897C9.91555 18.5643 10.3061 18.5129 10.6953 18.5385C11.0846 18.564 11.4651 18.6661 11.8149 18.8388C12.1647 19.0114 12.4771 19.2514 12.7341 19.5448C12.9912 19.8383 13.1878 20.1796 13.3129 20.5491C13.4804 21.0419 13.5146 21.5702 13.412 22.0805H20.2312C20.1633 21.7431 20.1551 21.3964 20.207 21.0561H14.7637C14.293 20.1068 14.1311 19.1375 14.0775 18.5068C14.1474 18.4857 14.2086 18.4427 14.2521 18.3842C14.2957 18.3256 14.3193 18.2546 14.3195 18.1817Z" fill="#777777"/>
<path d="M17.5524 14.8528C17.0201 14.7824 16.5472 14.6621 16.1242 14.5091H14.2504C14.2513 14.1591 14.2804 13.803 14.3245 13.4527C13.1955 12.4523 12.8647 11.2967 12.8434 11.2186C12.7334 10.8123 12.9743 10.3923 13.3804 10.2822C13.4455 10.2645 13.5127 10.2555 13.5802 10.2555C13.747 10.2558 13.9092 10.3107 14.042 10.4118C14.1747 10.5129 14.2708 10.6546 14.3156 10.8153C14.3247 10.8473 14.4161 11.1505 14.6681 11.5384L14.6874 11.4417C14.9 10.7043 14.6218 9.82156 13.9894 9.66403C13.3568 9.50628 12.4399 9.84988 12.0668 10.9348C11.5626 12.4296 11.4542 13.4025 11.6457 15.0486C11.8575 16.1381 12.5577 16.3346 13.1948 16.354C13.2315 16.3584 13.2685 16.3614 13.3065 16.3614H15.7917L14.9997 19.5802C14.966 19.7167 14.9639 19.859 14.9934 19.9964C15.023 20.1338 15.0834 20.2627 15.1701 20.3733C15.2569 20.4839 15.3676 20.5733 15.494 20.6348C15.6205 20.6962 15.7592 20.7281 15.8998 20.728C16.1068 20.7277 16.3078 20.6581 16.4707 20.5303C16.6336 20.4025 16.7489 20.2239 16.7984 20.0228L17.8728 15.6565C17.9063 15.5201 17.9084 15.3778 17.8789 15.2405C17.8494 15.1032 17.789 14.9744 17.7024 14.8638C17.7006 14.8615 17.6984 14.8596 17.6967 14.8573C17.6823 14.8581 17.6679 14.8593 17.6533 14.8593C17.6196 14.8594 17.5859 14.8573 17.5524 14.8528Z" fill="#777777"/>
<path d="M18.2401 14.174C18.2504 14.0969 18.2453 14.0184 18.2252 13.9432C18.2051 13.868 18.1704 13.7975 18.1231 13.7357C18.0757 13.6739 18.0167 13.6221 17.9493 13.5831C17.8819 13.5441 17.8075 13.5188 17.7303 13.5086C14.8331 13.1251 14.1798 10.9605 14.1513 10.8609C14.107 10.7125 14.0063 10.5874 13.8709 10.5123C13.7355 10.4372 13.576 10.418 13.4267 10.4589C13.2773 10.4998 13.1499 10.5975 13.0716 10.7311C12.9934 10.8648 12.9705 11.0237 13.0079 11.174C13.0413 11.297 13.8673 14.1931 17.5748 14.6839C17.7307 14.7045 17.8883 14.6623 18.0131 14.5667C18.1378 14.4711 18.2195 14.3299 18.2401 14.174ZM16.4042 8.52872L16.9953 8.88891C17.0576 8.76831 17.1049 8.64056 17.1362 8.50849C17.1971 8.24762 17.1938 7.97589 17.1267 7.71655H16.4042V8.52872ZM15.1349 9.75376C15.3668 9.80779 15.5984 9.80966 15.8183 9.76848L13.9383 8.67246C14.1192 9.1962 14.5554 9.61893 15.1349 9.75376Z" fill="#777777"/>
<path d="M15.4816 5.95312C13.8974 5.95312 13.5902 6.58359 13.5902 8.28082L17.0011 10.2692L17.276 9.25084L16.2412 8.62027V7.55339H18.0519C18.0519 7.55339 17.0659 5.95312 15.4816 5.95312Z" fill="#777777"/>
</g>
<defs>
<clipPath id="clip0_977_4619">
<rect width="30" height="30" fill="white" transform="translate(0.405273)"/>
</clipPath>
</defs>
</svg>
