<svg width="25" height="25" viewBox="0 0 25 25" fill="none" xmlns="http://www.w3.org/2000/svg">
<path d="M11.8678 2.77209C9.48337 2.77609 7.1977 3.72508 5.51163 5.41116C3.82555 7.09724 2.87656 9.3829 2.87256 11.7674C2.87455 14.1538 3.82242 16.4422 5.5085 18.1311C7.19458 19.82 9.48137 20.7718 11.8678 20.7778C13.9844 20.7778 15.9346 20.0332 17.4767 18.8011L21.2222 22.5466C21.4119 22.723 21.6627 22.819 21.9217 22.8145C22.1808 22.81 22.428 22.7052 22.6114 22.5222C22.7949 22.3393 22.9003 22.0923 22.9055 21.8333C22.9108 21.5743 22.8154 21.3233 22.6395 21.133L18.894 17.3837C20.1732 15.7928 20.8706 13.8126 20.8707 11.7711C20.8707 6.81241 16.8266 2.77209 11.8678 2.77209ZM11.8678 4.77524C15.7456 4.77524 18.8675 7.89335 18.8675 11.7674C18.8675 15.6414 15.7456 18.7784 11.8678 18.7784C7.99004 18.7784 4.87193 15.6527 4.87193 11.7749C4.87193 7.89713 7.99004 4.77524 11.8678 4.77524Z" fill="#313131"/>
</svg>
