<svg width="14" height="14" viewBox="0 0 14 14" fill="none" xmlns="http://www.w3.org/2000/svg">
<path d="M9.55012 3.09056L10.9093 4.44907M10.4241 1.89375L6.74902 5.56887C6.55913 5.7585 6.42962 6.00009 6.37682 6.26321L6.03735 7.96248L7.73662 7.62237C7.99973 7.56975 8.24101 7.44076 8.43096 7.25081L12.1061 3.57569C12.2165 3.46526 12.3041 3.33415 12.3639 3.18985C12.4237 3.04556 12.4544 2.89091 12.4544 2.73472C12.4544 2.57854 12.4237 2.42389 12.3639 2.27959C12.3041 2.1353 12.2165 2.00419 12.1061 1.89375C11.9956 1.78331 11.8645 1.69571 11.7202 1.63594C11.5759 1.57617 11.4213 1.54541 11.2651 1.54541C11.1089 1.54541 10.9543 1.57617 10.81 1.63594C10.6657 1.69571 10.5346 1.78331 10.4241 1.89375Z" stroke="#777777" stroke-width="1.28344" stroke-linecap="round" stroke-linejoin="round"/>
<path d="M11.1712 9.24604V11.1712C11.1712 11.5116 11.036 11.838 10.7953 12.0787C10.5546 12.3194 10.2281 12.4546 9.88774 12.4546H2.82885C2.48846 12.4546 2.16201 12.3194 1.92132 12.0787C1.68063 11.838 1.54541 11.5116 1.54541 11.1712V4.11229C1.54541 3.7719 1.68063 3.44546 1.92132 3.20477C2.16201 2.96408 2.48846 2.82886 2.82885 2.82886H4.754" stroke="#777777" stroke-width="1.28344" stroke-linecap="round" stroke-linejoin="round"/>
</svg>
