<svg width="14" height="14" viewBox="0 0 14 14" fill="none" xmlns="http://www.w3.org/2000/svg">
<path d="M9.80526 2.69966L11.3003 4.19403M10.7667 1.38318L6.72405 5.42581C6.51517 5.6344 6.37272 5.90015 6.31464 6.18958L5.94122 8.05877L7.81042 7.68465C8.09983 7.62677 8.36525 7.48489 8.57419 7.27594L12.6168 3.23331C12.7383 3.11183 12.8347 2.96761 12.9004 2.80889C12.9662 2.65016 13 2.48005 13 2.30824C13 2.13644 12.9662 1.96632 12.9004 1.8076C12.8347 1.64888 12.7383 1.50466 12.6168 1.38318C12.4953 1.26169 12.3511 1.16533 12.1924 1.09958C12.0337 1.03384 11.8636 1 11.6918 1C11.52 1 11.3498 1.03384 11.1911 1.09958C11.0324 1.16533 10.8882 1.26169 10.7667 1.38318Z" stroke="#313131" stroke-width="1.41178" stroke-linecap="round" stroke-linejoin="round"/>
<path d="M11.5883 9.47003V11.5877C11.5883 11.9621 11.4396 12.3212 11.1748 12.586C10.9101 12.8507 10.551 12.9995 10.1766 12.9995H2.41178C2.03735 12.9995 1.67826 12.8507 1.4135 12.586C1.14874 12.3212 1 11.9621 1 11.5877V3.82291C1 3.44848 1.14874 3.08939 1.4135 2.82463C1.67826 2.55987 2.03735 2.41113 2.41178 2.41113H4.52945" stroke="#313131" stroke-width="1.41178" stroke-linecap="round" stroke-linejoin="round"/>
</svg>
