<svg width="9" height="9" viewBox="0 0 9 9" fill="none" xmlns="http://www.w3.org/2000/svg">
<path d="M4.80526 2.69966L6.30034 4.19403M5.76668 1.38318L1.72405 5.42581C1.51517 5.6344 1.37272 5.90015 1.31464 6.18958L0.941223 8.05877L2.81042 7.68465C3.09983 7.62677 3.36525 7.48489 3.57419 7.27594L7.61682 3.23331C7.7383 3.11183 7.83467 2.96761 7.90041 2.80889C7.96616 2.65016 8 2.48005 8 2.30824C8 2.13644 7.96616 1.96632 7.90041 1.8076C7.83467 1.64888 7.7383 1.50466 7.61682 1.38318C7.49534 1.26169 7.35112 1.16533 7.1924 1.09958C7.03367 1.03384 6.86355 1 6.69175 1C6.51995 1 6.34983 1.03384 6.19111 1.09958C6.03239 1.16533 5.88817 1.26169 5.76668 1.38318Z" stroke="#313131" stroke-width="1.41178" stroke-linecap="round" stroke-linejoin="round"/>
</svg>
